<svg width="39" height="46" viewBox="0 0 39 46" fill="none" xmlns="http://www.w3.org/2000/svg">
<path d="M30.4272 1.50386C30.154 1.54403 29.9651 1.79808 30.0053 2.07128L30.66 6.5234C30.7002 6.7966 30.9542 6.98551 31.2274 6.94533C31.5006 6.90515 31.6895 6.65111 31.6494 6.3779L31.0674 2.42047L35.0248 1.83849C35.298 1.79831 35.4869 1.54426 35.4467 1.27106C35.4066 0.997854 35.1525 0.808949 34.8793 0.849126L30.4272 1.50386ZM0.5 45.4985C15.6525 45.4985 28.1863 38.3023 34.4736 29.2206C37.6185 24.678 39.2143 19.6408 38.7556 14.7874C38.2957 9.92214 35.7757 5.29844 30.7983 1.5973L30.2016 2.39977C34.9742 5.94863 37.3293 10.3249 37.76 14.8815C38.1918 19.45 36.694 24.2566 33.6514 28.6514C27.5637 37.4448 15.3475 44.4985 0.5 44.4985V45.4985Z" fill="white"/>
</svg>
